<svg height='300px' width='300px'  fill="#FFFFFF" xmlns="http://www.w3.org/2000/svg" xmlns:xlink="http://www.w3.org/1999/xlink" version="1.1" x="0px" y="0px" viewBox="0 0 100 100" style="enable-background:new 0 0 100 100;" xml:space="preserve"><g><path d="M8.6,74.8c0,3.9,3.1,7,7,7h68.8c3.9,0,7-3.1,7-7v-38H8.6V74.8z M50.6,55.7c-1.1,0-2-0.9-2-2s0.9-2,2-2h4.7v-3.3   c0-1.1,0.9-2,2-2h4.4c6.3,0,11.6,4.6,12.5,10.7h8.4c1.1,0,2,0.9,2,2s-0.9,2-2,2h-8.4c-1,6.1-6.2,10.7-12.5,10.7h-4.4   c-1.1,0-2-0.9-2-2v-3.3h-4.7c-1.1,0-2-0.9-2-2s0.9-2,2-2h4.7v-6.9H50.6z M17.4,57.1h8.4c1-6.1,6.2-10.7,12.5-10.7h4.4   c1.1,0,2,0.9,2,2v21.4c0,1.1-0.9,2-2,2h-4.4c-6.3,0-11.6-4.6-12.5-10.7h-8.4c-1.1,0-2-0.9-2-2S16.3,57.1,17.4,57.1z"></path><path d="M38.4,67.8h2.4V50.4h-2.4c-4.8,0-8.7,3.9-8.7,8.7C29.6,63.9,33.6,67.8,38.4,67.8z"></path><path d="M70.4,59.1c0-4.8-3.9-8.7-8.7-8.7h-2.4v17.4h2.4C66.4,67.8,70.4,63.9,70.4,59.1z"></path><path d="M84.4,18.2H15.6c-3.9,0-7,3.1-7,7v7.5h82.8v-7.5C91.4,21.4,88.2,18.2,84.4,18.2z M15.7,30.7c-2.8,0-5.1-2.3-5.1-5.1   s2.3-5.1,5.1-5.1s5.1,2.3,5.1,5.1S18.5,30.7,15.7,30.7z M29.6,30.7c-2.8,0-5.1-2.3-5.1-5.1s2.3-5.1,5.1-5.1s5.1,2.3,5.1,5.1   S32.4,30.7,29.6,30.7z M43.5,30.7c-2.8,0-5.1-2.3-5.1-5.1s2.3-5.1,5.1-5.1s5.1,2.3,5.1,5.1S46.3,30.7,43.5,30.7z"></path></g></svg>