<svg height='300px' width='300px'  fill="#FFFFFF" xmlns="http://www.w3.org/2000/svg" xmlns:xlink="http://www.w3.org/1999/xlink" version="1.1" x="0px" y="0px" viewBox="0 0 128 128" style="enable-background:new 0 0 128 128;" xml:space="preserve"><g><g><ellipse cx="82.154" cy="97.619" rx="3.743" ry="3.719"></ellipse><path d="M27.658,80.239H2l4.076,8.342l4.077,8.342c0.107,0.22,0.161,0.458,0.161,0.696c0,0.119-0.013,0.238-0.04,0.355    c-0.027,0.117-0.067,0.231-0.12,0.341L2,115h25.723l9.882-17.378L27.658,80.239z M20.343,104.525    c-3.833,0-6.952-3.098-6.952-6.906s3.119-6.906,6.952-6.906c3.833,0,6.952,3.098,6.952,6.906S24.176,104.525,20.343,104.525z"></path><ellipse cx="51.248" cy="97.619" rx="3.743" ry="3.719"></ellipse><path d="M58.563,80.239H31.348l9.495,16.593c0.14,0.244,0.21,0.517,0.21,0.789c0,0.27-0.069,0.54-0.208,0.783L31.408,115h27.221    l9.883-17.378L58.563,80.239z M51.248,104.525c-3.833,0-6.952-3.098-6.952-6.906s3.119-6.906,6.952-6.906    c3.833,0,6.952,3.098,6.952,6.906S55.081,104.525,51.248,104.525z"></path><path d="M89.468,80.239H62.254l9.495,16.593c0.001,0.001,0.001,0.002,0.002,0.003v0.001c0.002,0.002,0,0.003,0.002,0.003    c0.195,0.346,0.248,0.733,0.174,1.094c-0.016,0.078-0.037,0.155-0.065,0.23c-0.033,0.092-0.075,0.182-0.126,0.267L62.313,115    h27.22l9.883-17.378L89.468,80.239z M82.154,104.525c-3.833,0-6.952-3.098-6.952-6.906s3.119-6.906,6.952-6.906    c3.833,0,6.952,3.098,6.952,6.906S85.987,104.525,82.154,104.525z"></path><ellipse cx="20.343" cy="97.619" rx="3.743" ry="3.719"></ellipse><ellipse cx="113.059" cy="97.619" rx="3.743" ry="3.719"></ellipse><path d="M117.506,80.239h-2.308V4.349h-0.637c-0.167-0.457-0.534-0.827-1.021-0.978c-8.526-2.666-15.932-0.911-23.094,0.786    c-6.458,1.53-12.56,2.976-18.977,0.97c-0.487-0.152-1.018-0.065-1.431,0.235c-0.411,0.3-0.655,0.778-0.655,1.285v27.909    c0,0.696,0.454,1.311,1.123,1.52c2.87,0.897,5.639,1.244,8.334,1.244c4.702,0,9.176-1.057,13.554-2.092    c6.227-1.471,12.136-2.859,18.526-1.355v46.366H93.159l9.495,16.593c0.14,0.244,0.21,0.517,0.21,0.789    c0,0.27-0.069,0.54-0.208,0.783L93.218,115h24.288L126,97.619L117.506,80.239z M113.059,104.525c-3.833,0-6.952-3.098-6.952-6.906    c0-3.258,2.287-5.99,5.348-6.713V81.24h3.209v9.667c3.061,0.722,5.348,3.454,5.348,6.713    C120.011,101.427,116.892,104.525,113.059,104.525z"></path></g></g></svg>