<?xml version="1.0" encoding="UTF-8" standalone="no"?>
<svg
   xmlns:dc="http://purl.org/dc/elements/1.1/"
   xmlns:cc="http://creativecommons.org/ns#"
   xmlns:rdf="http://www.w3.org/1999/02/22-rdf-syntax-ns#"
   xmlns:svg="http://www.w3.org/2000/svg"
   xmlns="http://www.w3.org/2000/svg"
   xmlns:sodipodi="http://sodipodi.sourceforge.net/DTD/sodipodi-0.dtd"
   xmlns:inkscape="http://www.inkscape.org/namespaces/inkscape"
   width="74"
   height="50.000004"
   viewBox="0 0 74 50.000004"
   version="1.1"
   id="svg10"
   sodipodi:docname="trackmage-icon-white.svg"
   inkscape:version="0.92.3 (2405546, 2018-03-11)">
  <metadata
     id="metadata16">
    <rdf:RDF>
      <cc:Work
         rdf:about="">
        <dc:format>image/svg+xml</dc:format>
        <dc:type
           rdf:resource="http://purl.org/dc/dcmitype/StillImage" />
        <dc:title>trackmage_logo_white_75x75</dc:title>
      </cc:Work>
    </rdf:RDF>
  </metadata>
  <defs
     id="defs14" />
  <sodipodi:namedview
     pagecolor="#ffffff"
     bordercolor="#666666"
     borderopacity="1"
     objecttolerance="10"
     gridtolerance="10"
     guidetolerance="10"
     inkscape:pageopacity="0"
     inkscape:pageshadow="2"
     inkscape:window-width="1366"
     inkscape:window-height="700"
     id="namedview12"
     showgrid="false"
     fit-margin-top="0"
     fit-margin-left="0"
     fit-margin-right="0"
     fit-margin-bottom="0"
     inkscape:zoom="3.1466667"
     inkscape:cx="37.5"
     inkscape:cy="25.500002"
     inkscape:window-x="0"
     inkscape:window-y="32"
     inkscape:window-maximized="1"
     inkscape:current-layer="svg10" />
  <!-- Generator: Sketch 53.2 (72643) - https://sketchapp.com -->
  <title
     id="title2">trackmage_logo_white_75x75</title>
  <desc
     id="desc4">Created with Sketch.</desc>
  <path
     style="fill:#ffffff;fill-rule:evenodd;stroke:none;stroke-width:1"
     d="M 3,31.533236 C 3,33.444942 4.6703791,35 6.7238538,35 L 8.2761462,34.93353 C 10.329621,34.933528 12,33.377831 12,31.466764 12,29.555058 10.329621,28 8.2761462,28 L 6.7238538,28.06711 C 4.6703791,28.067111 3,29.622169 3,31.533236"
     id="Fill-4"
     inkscape:connector-curvature="0" />
  <path
     style="fill:#ffffff;fill-rule:evenodd;stroke:none;stroke-width:1"
     d="m 66.685014,33.875058 c 0,0.293865 -0.160113,0.568579 -0.418707,0.715182 l -13.46362,7.662286 c -0.254574,0.145282 -0.583511,0.145282 -0.838755,0 -0.258593,-0.147263 -0.418707,-0.421317 -0.418707,-0.715842 V 26.391072 c 0,-0.291224 0.158104,-0.563957 0.412008,-0.71188 l 13.46362,-7.827379 c 0.128627,-0.07462 0.276012,-0.114245 0.426077,-0.114245 0.145375,0 0.28941,0.03764 0.416027,0.108962 0.260604,0.146602 0.422057,0.421317 0.422057,0.717163 z M 49.493894,22.553655 36.018885,14.719673 c -0.255914,-0.148584 -0.414018,-0.423298 -0.412678,-0.715843 0.0013,-0.292544 0.162123,-0.565277 0.419377,-0.71188 L 49.500593,5.62306 C 49.62721,5.55042 49.772585,5.512778 49.9193,5.512778 c 0.147385,0 0.292091,0.03764 0.419378,0.110282 l 13.475009,7.66889 c 0.257253,0.146603 0.418037,0.419336 0.419377,0.71188 0.0013,0.292545 -0.156764,0.567259 -0.412678,0.715843 l -13.475009,7.833982 c -0.257924,0.149904 -0.59356,0.149904 -0.851483,0 z m -1.199848,18.983029 c 0,0.294525 -0.160784,0.568579 -0.419378,0.715842 -0.254574,0.145282 -0.58351,0.145282 -0.838084,0 L 33.572964,34.59024 C 33.31437,34.443637 33.154256,34.168923 33.154256,33.875058 V 18.563693 c 0,-0.295846 0.161454,-0.570561 0.422057,-0.717163 0.126617,-0.07132 0.270653,-0.108962 0.416028,-0.108962 0.150065,0 0.29745,0.03962 0.426077,0.114245 l 13.46362,7.827379 c 0.253904,0.147923 0.412008,0.420656 0.412008,0.71188 z M 48.637721,0 v 0.03038 c -0.113889,-0.0099 -0.228447,-0.02245 -0.343675,-0.02245 -0.03886,0 -0.07771,0.0026 -0.116568,0.004 -0.02412,-6.61e-4 -0.0469,-0.004 -0.07101,-0.004 h -29.2164 c -2.003096,0 -3.63371,1.606682 -3.63371,3.581852 0,1.821964 1.388098,3.32695 3.176146,3.550156 h 10.31829 c 2.003766,0 3.633711,1.606683 3.633711,3.581853 0,1.97517 -1.629945,3.581853 -3.633711,3.581853 H 3.4421097 c -0.067663,0 -0.1333164,-0.0066 -0.2003096,-0.01057 C 1.4222653,14.486562 0,16.009377 0,17.853794 c 0,1.821303 1.3880987,3.32695 3.1761468,3.550155 H 21.985153 c 2.003766,0 3.63371,1.606683 3.63371,3.581853 0,1.97517 -1.630614,3.581853 -3.63371,3.581853 h -3.566717 c -1.644683,0.341412 -2.884057,1.782342 -2.884057,3.503929 0,1.97517 1.629944,3.581853 3.63371,3.581853 l 2.401706,0.01453 h 5.709829 c 2.003096,0 3.63371,1.606683 3.63371,3.581853 0,1.97517 -1.630614,3.581853 -3.63371,3.581853 h -2.368879 c -1.787378,0.223206 -3.175477,1.728192 -3.175477,3.550156 0,1.974509 1.629944,3.581853 3.63371,3.581853 h 23.268743 v 0.03632 c 9.013263,0 16.922478,-4.639107 21.42107,-11.622532 0.221748,-0.272073 0.405979,-0.571221 0.547334,-0.891501 C 72.760626,33.811002 74,29.549627 74,24.99967 74,11.19263 62.644655,0 48.637721,0 Z"
     id="Fill-5"
     inkscape:connector-curvature="0" />
</svg>
