<?xml version="1.0" encoding="UTF-8" standalone="no"?>
<!-- Created with Inkscape (http://www.inkscape.org/) -->

<svg
   xmlns:dc="http://purl.org/dc/elements/1.1/"
   xmlns:cc="http://creativecommons.org/ns#"
   xmlns:rdf="http://www.w3.org/1999/02/22-rdf-syntax-ns#"
   xmlns:svg="http://www.w3.org/2000/svg"
   xmlns="http://www.w3.org/2000/svg"
   xmlns:sodipodi="http://sodipodi.sourceforge.net/DTD/sodipodi-0.dtd"
   xmlns:inkscape="http://www.inkscape.org/namespaces/inkscape"
   version="1.1"
   id="svg2"
   xml:space="preserve"
   width="147.27733"
   height="100.95333"
   viewBox="0 0 147.27733 100.95333"
   sodipodi:docname="trackmage-icon.svg"
   inkscape:version="0.92.3 (2405546, 2018-03-11)"><metadata
     id="metadata8"><rdf:RDF><cc:Work
         rdf:about=""><dc:format>image/svg+xml</dc:format><dc:type
           rdf:resource="http://purl.org/dc/dcmitype/StillImage" /><dc:title></dc:title></cc:Work></rdf:RDF></metadata><defs
     id="defs6"><clipPath
       clipPathUnits="userSpaceOnUse"
       id="clipPath18"><path
         d="M 0,142.273 H 142.273 V 0 H 0 Z"
         id="path16"
         inkscape:connector-curvature="0" /></clipPath></defs><sodipodi:namedview
     pagecolor="#ffffff"
     bordercolor="#666666"
     borderopacity="1"
     objecttolerance="10"
     gridtolerance="10"
     guidetolerance="10"
     inkscape:pageopacity="0"
     inkscape:pageshadow="2"
     inkscape:window-width="1366"
     inkscape:window-height="700"
     id="namedview4"
     showgrid="false"
     fit-margin-top="0"
     fit-margin-left="0"
     fit-margin-right="0"
     fit-margin-bottom="0"
     inkscape:zoom="2.4881742"
     inkscape:cx="120.69756"
     inkscape:cy="84.764289"
     inkscape:window-x="0"
     inkscape:window-y="32"
     inkscape:window-maximized="1"
     inkscape:current-layer="g10" /><g
     id="g10"
     inkscape:groupmode="layer"
     inkscape:label="Trackmage Favicons"
     transform="matrix(1.3333333,0,0,-1.3333333,-18.39656,142.11039)"><g
       id="g24"
       transform="translate(17.408819,57.868893)"><path
         d="m 0,0 c 0,-2.991 2.433,-5.424 5.424,-5.424 l 2.261,0.105 c 2.991,0 5.424,2.433 5.424,5.424 0,2.991 -2.433,5.424 -5.424,5.424 L 5.424,5.424 C 2.433,5.424 0,2.991 0,0"
         style="fill:#ee7227;fill-opacity:1;fill-rule:nonzero;stroke:none"
         id="path26"
         inkscape:connector-curvature="0" /></g><g
       id="g28"
       transform="translate(113.33742,55.285793)"><path
         d="m 0,0 c 0,-0.446 -0.24,-0.861 -0.626,-1.084 l -20.096,-11.603 c -0.38,-0.219 -0.872,-0.219 -1.252,0 -0.386,0.223 -0.626,0.638 -0.626,1.084 v 22.935 c 0,0.441 0.236,0.854 0.616,1.078 l 20.096,11.853 c 0.193,0.114 0.413,0.174 0.636,0.174 0.218,0 0.432,-0.057 0.621,-0.165 C -0.242,24.05 0,23.633 0,23.185 Z m -25.662,17.144 -20.113,11.863 c -0.382,0.225 -0.618,0.64 -0.616,1.084 0.002,0.443 0.242,0.856 0.626,1.078 l 20.113,11.612 c 0.19,0.11 0.407,0.168 0.626,0.168 0.219,0 0.436,-0.058 0.626,-0.168 L -4.287,31.169 c 0.384,-0.222 0.624,-0.635 0.626,-1.078 0.002,-0.444 -0.234,-0.859 -0.615,-1.084 L -24.39,17.144 c -0.385,-0.228 -0.887,-0.228 -1.272,0 m -1.79,-28.747 c 0,-0.445 -0.24,-0.861 -0.626,-1.084 -0.38,-0.219 -0.871,-0.219 -1.252,0 l -20.096,11.603 c -0.386,0.223 -0.626,0.638 -0.626,1.084 v 23.185 c 0,0.448 0.242,0.865 0.631,1.087 0.189,0.108 0.403,0.165 0.621,0.165 0.223,0 0.443,-0.06 0.636,-0.174 L -28.068,12.41 c 0.38,-0.224 0.616,-0.637 0.616,-1.078 z m 0.513,62.9 v -0.046 c -0.171,0.015 -0.341,0.034 -0.513,0.034 -0.058,0 -0.116,-0.004 -0.174,-0.006 -0.036,10e-4 -0.07,0.005 -0.106,0.005 l -43.611,10e-4 c -2.991,0 -5.424,-2.433 -5.424,-5.424 0,-2.759 2.072,-5.039 4.74,-5.376 l 15.403,-10e-4 c 2.991,0 5.424,-2.433 5.424,-5.424 0,-2.99 -2.433,-5.423 -5.424,-5.423 h -37.778 c -0.101,0 -0.2,0.01 -0.299,0.015 -2.717,-0.293 -4.839,-2.598 -4.839,-5.391 0,-2.759 2.072,-5.038 4.74,-5.376 h 28.076 c 2.991,0 5.424,-2.434 5.424,-5.424 0,-2.991 -2.433,-5.424 -5.424,-5.424 h -5.323 c -2.456,-0.517 -4.306,-2.7 -4.306,-5.307 0,-2.991 2.434,-5.424 5.424,-5.424 l 3.586,-0.021 h 8.522 c 2.991,0 5.424,-2.433 5.424,-5.424 0,-2.991 -2.433,-5.424 -5.424,-5.424 h -3.535 c -2.669,-0.338 -4.74,-2.618 -4.74,-5.376 0,-2.991 2.433,-5.424 5.424,-5.424 h 34.733 v -0.055 c 13.454,0 25.26,7.024 31.974,17.599 0.331,0.413 0.607,0.866 0.818,1.35 3.216,5.565 5.065,12.019 5.065,18.908 0,20.908 -16.949,37.858 -37.857,37.858"
         style="fill:#2e4068;fill-opacity:1;fill-rule:nonzero;stroke:none"
         id="path30"
         inkscape:connector-curvature="0" /></g></g></svg>