<svg height='300px' width='300px'  fill="#FFFFFF" xmlns="http://www.w3.org/2000/svg" data-name="Layer 1" viewBox="0 0 100 100" x="0px" y="0px"><title>Artboard 21</title><path d="M5.76,33.61,17.49,7.52a6.44,6.44,0,0,1,5.87-3.8H76.64a6.44,6.44,0,0,1,5.87,3.8L94.24,33.61c3.34,7.42-1.55,16.2-9.67,16.75l-.85,0a12.45,12.45,0,0,1-11.27-7.17A12.44,12.44,0,0,1,50,43.41a12.44,12.44,0,0,1-22.45-.18,12.45,12.45,0,0,1-11.27,7.17l-.85,0C7.31,49.81,2.42,41,5.76,33.61ZM8.28,95.77H55.46a1.08,1.08,0,0,0,.79-1.83,26.76,26.76,0,0,1-5-7.5,1.66,1.66,0,0,0-1.51-1h-27V54.81A17.93,17.93,0,0,1,16.28,56q-.63,0-1.24,0a17.31,17.31,0,0,1-2.6-.38V85.43H8.28a5.18,5.18,0,0,0,0,10.34Zm53-5.57a20.74,20.74,0,1,1,29.34,0A20.77,20.77,0,0,1,61.26,90.21Zm3.88-14.67a3,3,0,0,0,3,3H73v4.88a3,3,0,0,0,3,3h0a3,3,0,0,0,3-3V78.5h4.88a3,3,0,0,0,0-5.91H78.88V67.7a3,3,0,0,0-5.91,0v4.88H68.09A3,3,0,0,0,65.13,75.54Z"></path></svg>